<?xml version="1.0" standalone="no"?>
<!DOCTYPE svg PUBLIC "-//W3C//DTD SVG 1.1//EN" "http://www.w3.org/Graphics/SVG/1.1/DTD/svg11.dtd">
<svg xmlns="http://www.w3.org/2000/svg" xmlns:xlink="http://www.w3.org/1999/xlink" width="126.76799774169922" height="80.64600372314453" viewBox="0 0 126.768 80.646">
  <defs>
    <linearGradient id="linear-gradient" y1="0.5" x2="1" y2="0.5" gradientUnits="objectBoundingBox">
      <stop offset="0" stop-color="#ffdd15"/>
      <stop offset="1" stop-color="aqua"/>
    </linearGradient>
  </defs>
  <g id="Final-AICELogo" transform="translate(-576.96 -666.105)">
    <path id="Path_34" data-name="Path 34" d="M577.829,743.019a2.27,2.27,0,0,1-.711-2.619c2.68-6.743,20.714-55.656,23.43-62.379a42.408,42.408,0,0,1,3.5-7.512c2.927-4.511,7.528-5.355,11.529-3.447,2.318,1.106,3.651,3.172,4.717,5.321,4.119,8.285,7.943,16.7,11.588,25.2,2.106,4.912,4.323,9.779,6.56,14.635.778,1.689,1.974,1.874,2.987.687a1.609,1.609,0,0,0,.294-1.2V703.97c.294-3.958-.441-8.689-.315-13.442.026-.994.2-1.36,1.586-1.189a20.591,20.591,0,0,0,4.685,0c1.044-.112,1.409.029,1.355.861-.479,7.291-.106,14.6-.374,21.888-.107,2.949-1.03,5.81-3.882,7.634-2.962,1.892-8.08,1.11-10.566-.965-2.736-2.284-3.711-5.552-5.109-8.57-1.674-3.611-3.079-7.345-4.728-10.971-3.608-7.946-7.088-15.959-10.994-23.769-.425-.848-.765-2.052-1.948-1.953-1.053.089-1.4,1.231-1.747,2.081-3.783,9.271-22.818,60.752-26.59,70.028a.959.959,0,0,1-.648.565.971.971,0,0,1-.845-.177Zm103.784-24.237c-.015,1.145.2,1.561,1.487,1.542,5.481-.083,10.963-.029,16.445-.041,1.293,0,2.989.41,3.767-.234.824-.681.122-2.423.266-3.69s-.318-1.7-1.653-1.678c-4.174.081-8.353,0-12.528.054-.971.013-1.255-.228-1.2-1.192.085-1.649.069-3.306,0-4.956-.034-.829.243-1.048,1.05-1.019,1.721.057,3.445.017,5.167.017,4.152,0,4.094,0,4.173-4.134.026-1.378-.482-1.79-1.765-1.766-2.5.045-5.013-.028-7.518.035-.9.022-1.144-.262-1.108-1.123.068-1.547.075-3.1,0-4.646-.046-.909.285-1.1,1.141-1.088,3.289.047,6.578.028,9.867.015,1.4,0,3.289.477,4.071-.224.908-.818.147-2.721.307-4.138.127-1.087-.353-1.237-1.309-1.231-6.422.038-12.843.061-19.269-.016-1.258-.015-1.411.4-1.4,1.475.057,4.647.025,9.295.025,13.942C681.64,709.384,681.675,714.084,681.613,718.782Zm-21.284-19.24a4.528,4.528,0,0,1,4.105-4.931c3.268-.508,5.612,1.39,5.923,3.851.159,1.263.643,1.96,2.115,1.71,1.311-.223,2.658-.233,3.989-.338.821-.066.846-.658.785-1.241a9.827,9.827,0,0,0-5.067-8.089c-2.683-1.529-5.537-1.6-8.464-1.509a10.993,10.993,0,0,0-7.012,2.83c-2.531,2.212-3.121,5.272-3.208,8.343-.112,3.994-.4,8.025.294,11.992a9.332,9.332,0,0,0,3.769,6.289c3.776,2.695,8.061,2.775,12.176,1.723,4.432-1.132,6.863-4.163,7.516-8.876.147-1.062-.159-1.67-1.422-1.573a6.6,6.6,0,0,1-2.317-.1c-2.23-.617-2.63-.362-3.152,1.819-.588,2.49-2.9,3.881-5.94,3.576a4.483,4.483,0,0,1-4.082-4.64v-5.42c0-1.8.037-3.609-.01-5.414ZM645.4,670.3a7.694,7.694,0,0,0-7.986,7.712,7.966,7.966,0,0,0,15.93.039,7.682,7.682,0,0,0-7.944-7.755Zm-.094,9.964a2.677,2.677,0,0,1-2.115-2.182,2.271,2.271,0,0,1,2.434-2.049,2.224,2.224,0,0,1,1.944,2.21,2.444,2.444,0,0,1-2.264,2.017Z" fill="url(#linear-gradient)"/>
    <path id="Path_35" data-name="Path 35" d="M759.5,1119.2l-.74-1.659H755.3l-.731,1.659h-.66l2.809-6.234h.649l2.8,6.234Zm-3.961-2.219h2.979l-1.5-3.372Zm6.812-2.19a1.935,1.935,0,0,1,1.04-.29v.563a1.592,1.592,0,0,0-1.19.433,1.818,1.818,0,0,0-.512,1.2v2.5h-.6v-4.674h.6v1.088a1.784,1.784,0,0,1,.662-.809Zm4.358,4.081a1.916,1.916,0,0,1-1.035.349,1.107,1.107,0,0,1-.847-.324,1.385,1.385,0,0,1-.313-.989v-2.783h-.668l-.01-.464h.678v-1.2h.6v1.2l1.516-.01v.474H765.11v2.684c0,.577.212.866.649.866a1.532,1.532,0,0,0,.775-.25Zm1.677-6a.41.41,0,0,1,.115.3.417.417,0,0,1-.12.3.39.39,0,0,1-.29.125.4.4,0,0,1-.3-.125.422.422,0,0,1-.12-.3.412.412,0,0,1,.418-.42.391.391,0,0,1,.294.131Zm-.6,1.654h.6v4.674h-.6Zm3.315-1.221a.931.931,0,0,0-.255.686v.66h1.374v.474h-1.374v4.076h-.6v-4.076h-.6v-.474h.6v-.589a1.664,1.664,0,0,1,.2-.811,1.374,1.374,0,0,1,.527-.54,1.422,1.422,0,0,1,.714-.187,1.659,1.659,0,0,1,.821.214l-.152.486a1.328,1.328,0,0,0-.624-.162.846.846,0,0,0-.631.242Zm2.519-.423a.411.411,0,0,1,.117.3.423.423,0,0,1-.12.3.391.391,0,0,1-.29.125.4.4,0,0,1-.3-.125.422.422,0,0,1,.3-.723.386.386,0,0,1,.3.122Zm-.6,1.645h.6v4.674h-.6Zm4.193.509a1.773,1.773,0,0,0-.9.232,1.611,1.611,0,0,0-.624.649,1.982,1.982,0,0,0-.222.949,2.016,2.016,0,0,0,.222.955,1.607,1.607,0,0,0,.624.649,1.758,1.758,0,0,0,.9.232,2.105,2.105,0,0,0,.834-.162,1.681,1.681,0,0,0,.637-.464l.339.357a2.069,2.069,0,0,1-.785.581,2.624,2.624,0,0,1-1.053.2,2.38,2.38,0,0,1-1.2-.3,2.124,2.124,0,0,1-.824-.839,2.619,2.619,0,0,1,0-2.433,2.122,2.122,0,0,1,.824-.839,2.379,2.379,0,0,1,1.2-.3,2.7,2.7,0,0,1,1,.178,2.259,2.259,0,0,1,.77.5l-.339.4a1.936,1.936,0,0,0-1.4-.553Zm3.747-2.154a.444.444,0,0,1,0,.6.39.39,0,0,1-.29.125.4.4,0,0,1-.3-.125.423.423,0,0,1-.12-.3.412.412,0,0,1,.418-.42.391.391,0,0,1,.287.122Zm-.6,1.645h.6v4.674h-.6Zm5.273,4.674-.01-.785a1.682,1.682,0,0,1-.722.611,2.468,2.468,0,0,1-1.027.2,1.828,1.828,0,0,1-.834-.183,1.333,1.333,0,0,1-.754-1.226,1.136,1.136,0,0,1,.469-.955,2.131,2.131,0,0,1,1.3-.347h1.57v-.357a1.1,1.1,0,0,0-.324-.856,1.364,1.364,0,0,0-.963-.3,2.522,2.522,0,0,0-1.507.561l-.268-.41a3.977,3.977,0,0,1,.9-.487,2.862,2.862,0,0,1,.973-.162,1.878,1.878,0,0,1,1.312.425,1.534,1.534,0,0,1,.472,1.173l.01,3.095Zm-.594-.762a1.417,1.417,0,0,0,.584-.811v-.649H784.12a1.76,1.76,0,0,0-.937.2.685.685,0,0,0-.324.616.832.832,0,0,0,.308.673,1.238,1.238,0,0,0,.811.255,1.858,1.858,0,0,0,1.062-.285Zm2.824-5.857h.6v6.619h-.6Zm4.95.384h.616v6.234h-.616Zm6.231,2.029a1.823,1.823,0,0,1,.477,1.333v2.872h-.607v-2.729a1.421,1.421,0,0,0-.365-1.035,1.359,1.359,0,0,0-1.017-.375,1.591,1.591,0,0,0-1.156.446,1.833,1.833,0,0,0-.487,1.177v2.515h-.6v-4.674h.6v1.088a1.749,1.749,0,0,1,.709-.821,2.285,2.285,0,0,1,1.135-.285,1.76,1.76,0,0,1,1.307.486Zm4.429,3.893a1.916,1.916,0,0,1-1.036.349,1.109,1.109,0,0,1-.847-.324,1.392,1.392,0,0,1-.311-.989v-2.783h-.67l-.008-.464h.678v-1.205h.6v1.205l1.516-.01v.473H801.88v2.684q0,.866.649.866a1.537,1.537,0,0,0,.777-.25Zm4.483-3.69a2.663,2.663,0,0,1,.527,1.859h-3.893a1.8,1.8,0,0,0,.553,1.21,1.706,1.706,0,0,0,1.213.459,2.137,2.137,0,0,0,.83-.162,1.919,1.919,0,0,0,.655-.446l.337.339a2.323,2.323,0,0,1-.811.568,2.682,2.682,0,0,1-1.048.2,2.4,2.4,0,0,1-1.205-.3,2.142,2.142,0,0,1-.824-.834,2.642,2.642,0,0,1,0-2.433,2.133,2.133,0,0,1,.824-.838,2.363,2.363,0,0,1,1.187-.3A1.994,1.994,0,0,1,807.96,1115.193Zm0,1.395a1.714,1.714,0,0,0-.487-1.163,1.579,1.579,0,0,0-1.155-.433,1.67,1.67,0,0,0-1.177.436,1.747,1.747,0,0,0-.545,1.16Zm1.828-4.014h.6v6.619h-.6Zm2.433,0h.6v6.619h-.6Zm2.989.3a.411.411,0,0,1,.115.3.417.417,0,0,1-.12.3.39.39,0,0,1-.29.125.4.4,0,0,1-.3-.125.424.424,0,0,1-.12-.3.412.412,0,0,1,.418-.42.39.39,0,0,1,.289.125Zm-.6,1.645h.6v4.674h-.6Zm6.379,0v4.184a2.383,2.383,0,0,1-.286,1.186,1.917,1.917,0,0,1-.811.782,2.677,2.677,0,0,1-1.228.271,2.982,2.982,0,0,1-1.917-.714l.285-.428a2.628,2.628,0,0,0,.749.474,2.234,2.234,0,0,0,.856.162,1.743,1.743,0,0,0,1.28-.469,1.675,1.675,0,0,0,.477-1.254v-.762a1.841,1.841,0,0,1-.714.767,2.04,2.04,0,0,1-1.07.276,2.124,2.124,0,0,1-1.109-.289,2.01,2.01,0,0,1-.759-.811,2.445,2.445,0,0,1-.273-1.165,2.415,2.415,0,0,1,.273-1.16,2,2,0,0,1,.762-.795,2.184,2.184,0,0,1,1.116-.285,2.024,2.024,0,0,1,1.061.272,1.89,1.89,0,0,1,.714.772v-1.027Zm-1.409,3.769a1.583,1.583,0,0,0,.6-.629,1.882,1.882,0,0,0,.214-.9,1.9,1.9,0,0,0-.214-.91,1.591,1.591,0,0,0-.6-.629,1.762,1.762,0,0,0-1.73,0,1.605,1.605,0,0,0-.6.629,1.867,1.867,0,0,0-.219.91,1.84,1.84,0,0,0,.219.9,1.62,1.62,0,0,0,.6.624,1.771,1.771,0,0,0,1.735,0Zm6.512-3.094a2.66,2.66,0,0,1,.526,1.859h-3.893a1.784,1.784,0,0,0,.553,1.21,1.705,1.705,0,0,0,1.213.459,2.122,2.122,0,0,0,.829-.162,1.886,1.886,0,0,0,.66-.456l.339.339a2.321,2.321,0,0,1-.811.568,2.69,2.69,0,0,1-1.048.2,2.4,2.4,0,0,1-1.205-.3,2.131,2.131,0,0,1-.824-.834,2.629,2.629,0,0,1,0-2.433,2.124,2.124,0,0,1,.824-.839,2.362,2.362,0,0,1,1.187-.3,2.008,2.008,0,0,1,1.643.688Zm-.01,1.395a1.707,1.707,0,0,0-.487-1.163,1.582,1.582,0,0,0-1.156-.433,1.676,1.676,0,0,0-1.177.436,1.751,1.751,0,0,0-.543,1.16Zm5.545-1.6a1.822,1.822,0,0,1,.477,1.333v2.872H831.5v-2.729a1.414,1.414,0,0,0-.367-1.035,1.354,1.354,0,0,0-1.017-.375,1.588,1.588,0,0,0-1.155.446,1.826,1.826,0,0,0-.495,1.177v2.515h-.6v-4.674h.6v1.088a1.748,1.748,0,0,1,.709-.821,2.271,2.271,0,0,1,1.135-.286,1.763,1.763,0,0,1,1.312.49Zm3.928.04a1.77,1.77,0,0,0-.9.232,1.6,1.6,0,0,0-.624.649,1.962,1.962,0,0,0-.224.949,2,2,0,0,0,.224.955,1.6,1.6,0,0,0,.624.649,1.757,1.757,0,0,0,.9.232,2.124,2.124,0,0,0,.835-.162,1.7,1.7,0,0,0,.637-.464l.339.357a2.1,2.1,0,0,1-.785.581,2.635,2.635,0,0,1-1.053.2,2.373,2.373,0,0,1-1.2-.3,2.128,2.128,0,0,1-.826-.839,2.632,2.632,0,0,1,0-2.433,2.127,2.127,0,0,1,.826-.839,2.374,2.374,0,0,1,1.2-.3,2.692,2.692,0,0,1,.994.179,2.267,2.267,0,0,1,.772.5l-.339.4a1.947,1.947,0,0,0-1.408-.55Zm6.4.162a2.66,2.66,0,0,1,.525,1.859h-3.892a1.784,1.784,0,0,0,.553,1.21,1.7,1.7,0,0,0,1.213.459,2.124,2.124,0,0,0,.829-.162,1.887,1.887,0,0,0,.66-.456l.339.339a2.323,2.323,0,0,1-.811.568,2.691,2.691,0,0,1-1.048.2,2.4,2.4,0,0,1-1.205-.3,2.13,2.13,0,0,1-.824-.834,2.629,2.629,0,0,1,0-2.433,2.123,2.123,0,0,1,.824-.839,2.361,2.361,0,0,1,1.187-.3,2.016,2.016,0,0,1,1.643.691Zm-.01,1.395a1.706,1.706,0,0,0-.487-1.163,1.582,1.582,0,0,0-1.156-.433,1.677,1.677,0,0,0-1.177.436,1.752,1.752,0,0,0-.543,1.16Zm-110.192,7.77a2.655,2.655,0,0,0-2.34.143,2.582,2.582,0,0,0-.955.95,2.611,2.611,0,0,0,.955,3.576,2.567,2.567,0,0,0,1.324.352,2.66,2.66,0,0,0,1.009-.2,2.874,2.874,0,0,0,.874-.558l.375.4a3.572,3.572,0,0,1-1.062.678,3.12,3.12,0,0,1-1.221.25,3.224,3.224,0,0,1-2.8-1.588,3.071,3.071,0,0,1-.433-1.6,3.019,3.019,0,0,1,.436-1.588,3.319,3.319,0,0,1,5.067-.684l-.365.428a2.735,2.735,0,0,0-.873-.558Zm5.8,1.539a2.652,2.652,0,0,1,.527,1.859h-3.893a1.805,1.805,0,0,0,.553,1.21,1.706,1.706,0,0,0,1.213.459,2.134,2.134,0,0,0,.83-.162,1.906,1.906,0,0,0,.66-.456l.339.339a2.323,2.323,0,0,1-.811.568,2.693,2.693,0,0,1-1.049.2,2.392,2.392,0,0,1-1.22-.282,2.146,2.146,0,0,1-.826-.834,2.642,2.642,0,0,1,0-2.433,2.138,2.138,0,0,1,.826-.839,2.356,2.356,0,0,1,1.186-.3,2,2,0,0,1,1.658.675Zm0,1.395a1.7,1.7,0,0,0-.487-1.163,1.579,1.579,0,0,0-1.155-.433,1.671,1.671,0,0,0-1.177.436,1.762,1.762,0,0,0-.545,1.16Zm5.544-1.6a1.823,1.823,0,0,1,.477,1.333v2.872h-.607v-2.73a1.421,1.421,0,0,0-.365-1.035,1.354,1.354,0,0,0-1.017-.375,1.584,1.584,0,0,0-1.155.446,1.837,1.837,0,0,0-.5,1.177v2.516h-.6v-4.674h.6v1.088a1.743,1.743,0,0,1,.71-.821,2.271,2.271,0,0,1,1.135-.285,1.755,1.755,0,0,1,1.3.493Zm4.429,3.893a1.916,1.916,0,0,1-1.035.349,1.113,1.113,0,0,1-.848-.324,1.392,1.392,0,0,1-.311-.989v-2.783h-.67v-.464h.678v-1.2h.6v1.2l1.517-.01v.474h-1.517v2.684q0,.866.649.866a1.537,1.537,0,0,0,.777-.25Zm4.472-3.683a2.663,2.663,0,0,1,.527,1.859h-3.893a1.805,1.805,0,0,0,.553,1.21,1.706,1.706,0,0,0,1.213.459,2.132,2.132,0,0,0,.83-.162,1.918,1.918,0,0,0,.66-.456l.339.339a2.337,2.337,0,0,1-.811.568,2.7,2.7,0,0,1-1.049.2,2.391,2.391,0,0,1-1.2-.3,2.136,2.136,0,0,1-.825-.834,2.642,2.642,0,0,1,0-2.433,2.127,2.127,0,0,1,.826-.839,2.355,2.355,0,0,1,1.186-.3A2.011,2.011,0,0,1,751.994,1125.9Zm0,1.395a1.708,1.708,0,0,0-.487-1.163,1.579,1.579,0,0,0-1.155-.433,1.67,1.67,0,0,0-1.178.436,1.754,1.754,0,0,0-.545,1.16Zm3.046-1.8a1.932,1.932,0,0,1,1.04-.29v.563a1.591,1.591,0,0,0-1.19.433,1.819,1.819,0,0,0-.514,1.2v2.5h-.6v-4.674h.6v1.088a1.8,1.8,0,0,1,.657-.812Zm7.542.01a2.147,2.147,0,0,1,.839.834,2.41,2.41,0,0,1,.3,1.213,2.455,2.455,0,0,1-.3,1.226,2.138,2.138,0,0,1-.839.839,2.615,2.615,0,0,1-2.433,0,2.15,2.15,0,0,1-.839-.839,2.471,2.471,0,0,1-.3-1.226,2.433,2.433,0,0,1,.3-1.213,2.158,2.158,0,0,1,.839-.834A2.6,2.6,0,0,1,762.582,1125.5Zm-2.123.449a1.624,1.624,0,0,0-.624.649,2.178,2.178,0,0,0,0,1.917,1.6,1.6,0,0,0,.624.649,1.9,1.9,0,0,0,1.82,0,1.591,1.591,0,0,0,.625-.649,2.011,2.011,0,0,0,.224-.963,1.991,1.991,0,0,0-.224-.954,1.612,1.612,0,0,0-.625-.649A1.9,1.9,0,0,0,760.459,1125.954Zm5.482-1.946a.937.937,0,0,0-.255.686v.66h1.374v.474h-1.382v4.076h-.6v-4.076h-.6v-.474h.6v-.592a1.646,1.646,0,0,1,.2-.811,1.368,1.368,0,0,1,.525-.54,1.427,1.427,0,0,1,.714-.187,1.655,1.655,0,0,1,.821.214l-.151.487a1.335,1.335,0,0,0-.624-.162.852.852,0,0,0-.629.242Zm4.483-.339H774.6v.553H771.03v2.23h3.185v.553H771.03v2.345h3.675v.553h-4.29Zm5.146,1.56h.7l1.3,1.855,1.312-1.855h.668l-1.588,2.271,1.7,2.408h-.705l-1.4-2-1.437,2h-.678l1.722-2.408Zm6.851.509a1.768,1.768,0,0,0-.9.232,1.6,1.6,0,0,0-.624.649,1.963,1.963,0,0,0-.224.949,2,2,0,0,0,.224.955,1.6,1.6,0,0,0,.624.649,1.757,1.757,0,0,0,.9.232,2.1,2.1,0,0,0,.834-.162,1.7,1.7,0,0,0,.639-.464l.339.357a2.092,2.092,0,0,1-.785.58,2.631,2.631,0,0,1-1.053.2,2.373,2.373,0,0,1-1.2-.3,2.128,2.128,0,0,1-.825-.839,2.632,2.632,0,0,1,0-2.433,2.127,2.127,0,0,1,.825-.839,2.373,2.373,0,0,1,1.2-.3,2.689,2.689,0,0,1,.994.178,2.273,2.273,0,0,1,.772.5l-.339.4a1.946,1.946,0,0,0-1.409-.556Zm6.4.162a2.669,2.669,0,0,1,.525,1.859H785.45a1.784,1.784,0,0,0,.553,1.21,1.7,1.7,0,0,0,1.213.459,2.124,2.124,0,0,0,.829-.162,1.907,1.907,0,0,0,.66-.456l.339.339a2.322,2.322,0,0,1-.811.568,2.694,2.694,0,0,1-1.048.2,2.4,2.4,0,0,1-1.205-.3,2.146,2.146,0,0,1-.826-.833,2.642,2.642,0,0,1,0-2.433,2.136,2.136,0,0,1,.826-.838,2.357,2.357,0,0,1,1.187-.3,2,2,0,0,1,1.641.684Zm-.01,1.395a1.7,1.7,0,0,0-.487-1.163,1.579,1.579,0,0,0-1.155-.433,1.67,1.67,0,0,0-1.177.437,1.751,1.751,0,0,0-.543,1.16Zm1.829-4.014h.6v6.619h-.6Zm2.433,0h.6v6.619h-.6Zm5.857,2.616a2.652,2.652,0,0,1,.527,1.859h-3.893a1.8,1.8,0,0,0,.553,1.21,1.706,1.706,0,0,0,1.213.459,2.134,2.134,0,0,0,.83-.162,1.918,1.918,0,0,0,.66-.456l.339.339a2.344,2.344,0,0,1-.811.568,2.684,2.684,0,0,1-1.048.2,2.388,2.388,0,0,1-1.2-.3,2.137,2.137,0,0,1-.826-.834,2.642,2.642,0,0,1,0-2.433,2.129,2.129,0,0,1,.826-.839,2.355,2.355,0,0,1,1.186-.3A2,2,0,0,1,798.926,1125.9Zm0,1.395a1.714,1.714,0,0,0-.487-1.163,1.58,1.58,0,0,0-1.155-.433,1.67,1.67,0,0,0-1.177.436,1.747,1.747,0,0,0-.545,1.16Zm5.544-1.6a1.823,1.823,0,0,1,.477,1.333v2.872h-.607v-2.73a1.415,1.415,0,0,0-.367-1.035,1.354,1.354,0,0,0-1.017-.375,1.587,1.587,0,0,0-1.155.446,1.835,1.835,0,0,0-.487,1.177v2.516h-.6v-4.674h.6v1.088a1.749,1.749,0,0,1,.709-.821,2.272,2.272,0,0,1,1.135-.285,1.76,1.76,0,0,1,1.317.49Zm3.93.04a1.772,1.772,0,0,0-.9.232,1.611,1.611,0,0,0-.624.649,1.963,1.963,0,0,0-.224.949,2,2,0,0,0,.224.955,1.609,1.609,0,0,0,.624.649,1.759,1.759,0,0,0,.9.232,2.112,2.112,0,0,0,.834-.162,1.679,1.679,0,0,0,.637-.464l.339.357a2.08,2.08,0,0,1-.785.581,2.626,2.626,0,0,1-1.053.2,2.372,2.372,0,0,1-1.2-.3,2.137,2.137,0,0,1-.825-.839,2.632,2.632,0,0,1,0-2.433,2.138,2.138,0,0,1,.825-.839,2.374,2.374,0,0,1,1.2-.3,2.684,2.684,0,0,1,.994.179,2.269,2.269,0,0,1,.772.5l-.339.4a1.937,1.937,0,0,0-1.4-.55Zm6.4.162a2.647,2.647,0,0,1,.526,1.859h-3.893a1.8,1.8,0,0,0,.553,1.21,1.707,1.707,0,0,0,1.213.459,2.138,2.138,0,0,0,.83-.162,1.9,1.9,0,0,0,.659-.456l.339.339a2.32,2.32,0,0,1-.811.568,2.685,2.685,0,0,1-1.048.2,2.4,2.4,0,0,1-1.205-.3,2.142,2.142,0,0,1-.824-.834,2.642,2.642,0,0,1,0-2.433,2.135,2.135,0,0,1,.824-.838,2.365,2.365,0,0,1,1.187-.3,2.025,2.025,0,0,1,1.648.691Zm0,1.395a1.715,1.715,0,0,0-.487-1.163,1.582,1.582,0,0,0-1.156-.433,1.668,1.668,0,0,0-1.176.436,1.748,1.748,0,0,0-.545,1.16Zm9,2.6-.741-1.659h-3.461l-.731,1.659h-.66l2.811-6.235h.649l2.809,6.235Zm-3.97-2.212H822.8l-1.5-3.372Zm6.525-3.683a.937.937,0,0,0-.255.686v.66h1.377v.474H826.1v4.076h-.6v-4.076h-.6v-.474h.6v-.582a1.647,1.647,0,0,1,.2-.811,1.37,1.37,0,0,1,.526-.54,1.427,1.427,0,0,1,.714-.187,1.655,1.655,0,0,1,.821.214l-.151.487a1.335,1.335,0,0,0-.624-.162.852.852,0,0,0-.633.242Zm3.185,1.494a1.926,1.926,0,0,1,1.038-.29v.563a1.593,1.593,0,0,0-1.19.433,1.819,1.819,0,0,0-.512,1.2v2.5h-.6v-4.674h.6v1.088a1.784,1.784,0,0,1,.665-.809Zm2.595-1.917a.445.445,0,0,1,0,.6.39.39,0,0,1-.29.125.4.4,0,0,1-.3-.125.423.423,0,0,1-.12-.3.412.412,0,0,1,.418-.42.391.391,0,0,1,.3.128Zm-.6,1.645h.6v4.674h-.6Zm4.193.509a1.774,1.774,0,0,0-.9.232,1.6,1.6,0,0,0-.624.649,1.961,1.961,0,0,0-.224.949,2,2,0,0,0,.224.955,1.6,1.6,0,0,0,.624.649,1.756,1.756,0,0,0,.9.232,2.125,2.125,0,0,0,.835-.162,1.706,1.706,0,0,0,.637-.464l.339.357a2.094,2.094,0,0,1-.785.581,2.633,2.633,0,0,1-1.053.2,2.372,2.372,0,0,1-1.2-.3,2.127,2.127,0,0,1-.826-.838,2.632,2.632,0,0,1,0-2.433,2.127,2.127,0,0,1,.826-.838,2.373,2.373,0,0,1,1.2-.3,2.689,2.689,0,0,1,.994.178,2.271,2.271,0,0,1,.772.5l-.339.4a1.946,1.946,0,0,0-1.4-.547Zm5.808,4.165-.01-.785a1.682,1.682,0,0,1-.722.611,2.464,2.464,0,0,1-1.026.2,1.828,1.828,0,0,1-.834-.183,1.333,1.333,0,0,1-.754-1.226,1.135,1.135,0,0,1,.469-.955,2.137,2.137,0,0,1,1.3-.347h1.57v-.357a1.1,1.1,0,0,0-.324-.856,1.364,1.364,0,0,0-.963-.3,2.521,2.521,0,0,0-1.507.561l-.268-.41a3.988,3.988,0,0,1,.9-.487,2.862,2.862,0,0,1,.973-.162,1.878,1.878,0,0,1,1.312.425,1.534,1.534,0,0,1,.472,1.172l.01,3.095Zm-.594-.762a1.418,1.418,0,0,0,.584-.811v-.649h-1.507a1.757,1.757,0,0,0-.937.2.684.684,0,0,0-.324.616.832.832,0,0,0,.308.673,1.238,1.238,0,0,0,.811.255,1.859,1.859,0,0,0,1.07-.279Z" transform="translate(-139.117 -383.197)" fill="#fff"/>
  </g>
</svg>